<?xml version="1.0" encoding="UTF-8" standalone="no"?>
<svg
   xmlns:dc="http://purl.org/dc/elements/1.1/"
   xmlns:cc="http://creativecommons.org/ns#"
   xmlns:rdf="http://www.w3.org/1999/02/22-rdf-syntax-ns#"
   xmlns:svg="http://www.w3.org/2000/svg"
   xmlns="http://www.w3.org/2000/svg"
   xmlns:sodipodi="http://sodipodi.sourceforge.net/DTD/sodipodi-0.dtd"
   xmlns:inkscape="http://www.inkscape.org/namespaces/inkscape"
   width="24.999996mm"
   height="25.000032mm"
   viewBox="0 0 24.999996 25.000033"
   version="1.1"
   id="svg853"
   inkscape:version="1.0.1 (3bc2e813f5, 2020-09-07)"
   sodipodi:docname="XB.svg">
  <defs
     id="defs847" />
  <sodipodi:namedview
     id="base"
     pagecolor="#ffffff"
     bordercolor="#666666"
     borderopacity="1.0"
     inkscape:pageopacity="0.0"
     inkscape:pageshadow="2"
     inkscape:zoom="2.02"
     inkscape:cx="-81.191627"
     inkscape:cy="-2.7594995"
     inkscape:document-units="mm"
     inkscape:current-layer="layer1"
     showgrid="false"
     inkscape:window-width="960"
     inkscape:window-height="1017"
     inkscape:window-x="0"
     inkscape:window-y="0"
     inkscape:window-maximized="0"
     inkscape:document-rotation="0" />
  <metadata
     id="metadata850">
    <rdf:RDF>
      <cc:Work
         rdf:about="">
        <dc:format>image/svg+xml</dc:format>
        <dc:type
           rdf:resource="http://purl.org/dc/dcmitype/StillImage" />
        <dc:title></dc:title>
      </cc:Work>
    </rdf:RDF>
  </metadata>
  <g
     inkscape:label="Layer 1"
     inkscape:groupmode="layer"
     id="layer1"
     transform="translate(-127.31529,-160.9008)">
    <g
       aria-label="X"
       transform="scale(1.114581,0.89719817)"
       style="font-style:normal;font-variant:normal;font-weight:600;font-stretch:condensed;font-size:40.47272873px;line-height:1.25;font-family:Bahnschrift;-inkscape-font-specification:'Bahnschrift Semi-Bold Condensed';letter-spacing:0px;word-spacing:0px;fill:#000000;fill-opacity:1;stroke:none;stroke-width:1.01181817"
       id="text859">
      <path
         d="m 136.65694,204.47437 q 0,1.93668 -0.17786,2.2924 -0.21738,0.43476 -1.34382,0.43476 -0.17786,0 -0.79048,0 -0.59286,-0.0198 -1.00787,-0.0198 -0.39524,0 -1.20548,-0.0395 -0.79049,-0.0395 -1.18573,-0.0395 -0.31619,0 -2.84574,-3.79432 -2.52954,-3.79431 -2.62835,-3.81408 -0.41501,0.33596 -2.84574,3.99194 -2.33193,3.49789 -2.72717,3.61646 -0.27667,0.079 -1.48215,0.079 -4.05123,0 -4.05123,-0.415 0,-0.41501 -0.0593,-1.18573 -0.0395,-0.77072 -0.0395,-1.1462 0,-2.4505 0.29643,-2.88526 0.0198,-0.0198 3.26074,-4.3279 2.62836,-3.47812 2.62836,-3.97217 0,-0.49405 -2.62836,-3.91289 -1.66001,-2.11454 -3.30026,-4.24885 -0.17786,-0.25691 -0.21739,-0.84977 -0.0198,-0.415 0,-1.12644 0.0593,-0.84977 0.0593,-0.94858 0,-0.39524 -0.079,-1.22524 -0.0593,-0.83001 -0.0593,-1.22525 0,-0.37548 0.69167,-0.37548 0.45453,0 1.34382,0.0593 0.88929,0.0593 1.32406,0.0593 0.39524,0 1.16596,-0.0395 0.77072,-0.0395 1.1462,-0.0395 0.31619,0 2.8655,3.85361 2.56907,3.83384 2.68764,3.83384 0.39525,-0.23715 2.90503,-4.03146 2.39121,-3.65599 2.74693,-3.65599 h 4.70337 q 0.69167,0 0.69167,0.33596 v 4.80218 q 0,0.51381 -3.06312,4.48599 -3.04336,3.97218 -3.04336,4.20932 0,0.33596 2.68765,3.89313 3.16193,4.1698 3.30026,4.36742 0.27667,0.43477 0.27667,3.00384 z"
         style="font-style:normal;font-variant:normal;font-weight:bold;font-stretch:normal;font-family:'Berlin Sans FB Demi';-inkscape-font-specification:'Berlin Sans FB Demi Bold';fill:#000000;fill-opacity:1;stroke-width:1.01181817"
         id="path1404"
         inkscape:connector-curvature="0" />
    </g>
  </g>
</svg>
